<svg id="Layer_1" data-name="Layer 1" xmlns="http://www.w3.org/2000/svg" viewBox="0 0 414 155"><defs><style>.cls-1{fill:#fff;}</style></defs><path class="cls-1" d="M40.86,149.45A50.57,50.57,0,0,1,18.37,144q-11-5.41-18.11-17.29l10.82-10.62a39.94,39.94,0,0,0,13.65,13.64,31.25,31.25,0,0,0,15.72,4.48q14.56,0,21.45-7.81t6.87-24.68V24.71H11.5V10.13H86.05v93.09a62.46,62.46,0,0,1-4.16,23.22,34.54,34.54,0,0,1-14.06,16.77Q57.95,149.45,40.86,149.45Z"/><path class="cls-1" d="M154.15,149.45a45.51,45.51,0,0,1-27.28-8.53q-11.87-8.55-18.54-24.47T101.67,78q0-22.06,6.66-37.79t18.54-24.06a48.83,48.83,0,0,1,54.56,0Q193.3,24.51,200,40.23T206.63,78q0,22.5-6.67,38.43t-18.53,24.47A45.53,45.53,0,0,1,154.15,149.45Zm0-15.2a26.91,26.91,0,0,0,18.22-6.77q7.81-6.76,12.08-19.36T188.72,78q0-17.28-4.27-29.57T172.37,29.61a28.58,28.58,0,0,0-36.44,0q-7.81,6.55-12.08,18.84T119.58,78q0,17.51,4.27,30.1t12.08,19.36A26.91,26.91,0,0,0,154.15,134.25Z"/><path class="cls-1" d="M221.2,147V10.34h19.16l43.74,85.8,13.11,28.32h.42q-.42-10.2-1.35-21.34t-.94-22V10.34H312V147H292.84L249.11,61.16,236,32.83h-.42q.42,10.43,1.36,21.25t.93,21.44V147Z"/><path class="cls-1" d="M327.83,147V10.34h84.55V24.92H345.32v42.9H402V82.61H345.32v49.56h69.14V147Z"/></svg>